Coordinates
version=1
nRows=26
nColumns=24
inDegrees=yes

Units are S.I. units (second, meters, Newtons, ...)
Angles are in degrees.

endheader
time	pelvis_tilt	pelvis_list	pelvis_rotation	pelvis_tx	pelvis_ty	pelvis_tz	hip_flexion_r	hip_adduction_r	hip_rotation_r	knee_angle_r	ankle_angle_r	subtalar_angle_r	mtp_angle_r	hip_flexion_l	hip_adduction_l	hip_rotation_l	knee_angle_l	ankle_angle_l	subtalar_angle_l	mtp_angle_l	lumbar_extension	lumbar_bending	lumbar_rotation
      0.88550000	     -2.98952458	      0.59181611	     -7.47920062	     -0.14720423	      0.88605779	      0.31260253	    -14.41606151	      2.44610725	      2.45252888	     -8.86086579	     19.53391243	      8.92277348	     10.35326330	     31.12805343	     -3.52381797	    -10.49563753	    -13.88634484	      6.14899895	     -3.50246317	     -0.83536926	     -7.39191507	     -0.37873554	     12.66045406
      0.88966667	     -3.07764854	      0.69419370	     -7.71055833	     -0.14084262	      0.88485898	      0.31262819	    -14.39920686	      2.19993773	      2.41194426	     -9.56137284	     19.72785192	      9.39090945	     10.67736046	     31.10690199	     -3.47703664	    -10.51398053	    -13.92735143	      6.11440878	     -3.53202319	     -0.80045034	     -7.22107001	     -0.54972347	     12.91804589
      0.89383333	     -3.14902043	      0.80316008	     -7.91684567	     -0.13443848	      0.88373410	      0.31260015	    -14.39152634	      1.94974447	      2.36476139	    -10.27768009	     19.83044336	      9.74364026	     11.13774756	     31.07368500	     -3.40499966	    -10.53121921	    -14.06563390	      6.06536787	     -3.66083835	     -0.73954203	     -7.05561626	     -0.71366029	     13.05599124
      0.89800000	     -3.22281804	      0.92578506	     -8.11497181	     -0.12801123	      0.88266717	      0.31263028	    -14.39721343	      1.70257395	      2.47641525	    -10.96009261	     19.87176449	      9.88842768	     11.40830131	     31.05074804	     -3.32487833	    -10.57704365	    -14.29711856	      5.97678505	     -3.76906639	     -0.69811744	     -6.88241474	     -0.94787923	     13.09889022
      0.90216667	     -3.28266470	      1.05107765	     -8.26347418	     -0.12155139	      0.88166507	      0.31249407	    -14.36548478	      1.44193231	      2.37829237	    -11.73547326	     19.74183497	     10.16791323	     15.59424983	     31.00872019	     -3.19393692	    -10.52736347	    -14.56878034	      5.80818773	     -4.06923226	      0.08267877	     -6.72296220	     -1.12531203	     13.12486258
      0.90633333	     -3.36896262	      1.17697670	     -8.40778029	     -0.11509822	      0.88066150	      0.31239021	    -14.27846980	      1.19625668	      2.35916050	    -12.57825724	     19.72874650	     10.39112810	     15.68772629	     31.03994379	     -3.08833188	    -10.58330676	    -15.00633616	      5.68598467	     -4.17262293	      0.11248989	     -6.53608508	     -1.33066706	     13.24124215
      0.91050000	     -3.45357339	      1.31748112	     -8.52389910	     -0.10861856	      0.87972252	      0.31220597	    -14.16199165	      0.93658644	      2.30261311	    -13.47916551	     19.65323366	     10.63122846	     15.87144005	     31.06161659	     -2.93921447	    -10.57366745	    -15.46577439	      5.48648171	     -4.41758458	      0.16438558	     -6.34676859	     -1.54443599	     13.26436265
      0.91466667	     -3.53762425	      1.46095872	     -8.61182108	     -0.10212079	      0.87883945	      0.31197669	    -14.02070666	      0.68202813	      2.24151619	    -14.43054041	     19.52256483	     10.81423034	     16.10937385	     31.09712111	     -2.77528124	    -10.56039752	    -15.99337349	      5.24386527	     -4.67909384	      0.22699787	     -6.15151202	     -1.75807602	     13.25075364
      0.91883333	     -3.62246828	      1.62312130	     -8.69342325	     -0.09557800	      0.87803573	      0.31174282	    -13.86138361	      0.41416453	      2.22903875	    -15.40440392	     19.27059255	     10.91093855	     16.30066572	     31.13158179	     -2.59269060	    -10.57596937	    -16.55738140	      5.00727979	     -4.90591755	      0.27419150	     -5.94706456	     -2.02565490	     13.19553586
      0.92300000	     -3.68363839	      1.77687229	     -8.70913163	     -0.08903707	      0.87730251	      0.31134135	    -13.68134412	      0.15083681	      2.05729906	    -16.46505571	     18.92523130	     11.05921322	     20.35414581	     31.15692219	     -2.36421475	    -10.46508364	    -17.16028382	      4.71372083	     -5.34491771	      1.29443656	     -5.78212807	     -2.23624195	     13.12399084
      0.92716667	     -3.76816986	      1.92469486	     -8.72395558	     -0.08249580	      0.87659151	      0.31095134	    -13.43911199	     -0.09404173	      1.95395467	    -17.60650297	     18.61127493	     11.20068058	     20.44745661	     31.23708469	     -2.16812386	    -10.45049796	    -17.86469458	      4.48427809	     -5.56034712	      1.31846301	     -5.59419610	     -2.45244512	     13.04015596
      0.93133333	     -3.84406484	      2.07995839	     -8.70616400	     -0.07594638	      0.87596116	      0.31049426	    -13.16873653	     -0.34238419	      1.82213465	    -18.81365984	     18.21564137	     11.28813835	     20.61291143	     31.30979243	     -1.94110130	    -10.38868846	    -18.57987358	      4.23841928	     -5.85694786	      1.35012251	     -5.41240476	     -2.67571847	     12.91347366
      0.93550000	     -3.87587695	      2.27527936	     -8.65274304	     -0.06934475	      0.87547310	      0.30991410	    -12.90100509	     -0.65114932	      1.57901086	    -20.09197052	     17.72685537	     11.49549413	     21.41753917	     31.30427200	     -1.62122358	    -10.21779207	    -19.22836139	      3.97196732	     -6.30769314	      1.48882624	     -5.28362780	     -2.95162631	     12.75081437
      0.93966667	     -3.94948358	      2.41950584	     -8.58705143	     -0.06277723	      0.87496760	      0.30938055	    -12.56872419	     -0.87250925	      1.45523106	    -21.40118406	     17.10347358	     11.39533097	     24.89797010	     31.40639996	     -1.39711958	    -10.17264390	    -20.04527317	      3.81163719	     -6.53438978	      2.01954731	     -5.10498099	     -3.17433426	     12.60582560
      0.94383333	     -4.00628516	      2.57247268	     -8.50109372	     -0.05622493	      0.87455610	      0.30877147	    -12.19449268	     -1.11166009	      1.28047439	    -22.82020002	     16.47899417	     11.41467393	     24.97230848	     31.48135050	     -1.14474255	    -10.09615167	    -20.84228655	      3.66405798	     -6.74545504	      2.02942475	     -4.95729038	     -3.38790020	     12.40705918
      0.94800000	     -4.04886734	      2.74001607	     -8.39001713	     -0.04966820	      0.87422568	      0.30809435	    -11.78644329	     -1.37095252	      1.06396824	    -24.31989834	     15.79438278	     11.43711099	     25.13654447	     31.53059385	     -0.85334689	     -9.96762193	    -21.61900282	      3.54717692	     -7.02033755	      2.04319086	     -4.83073805	     -3.62587808	     12.18692752
      0.95216667	     -4.04538634	      2.93007653	     -8.25451421	     -0.04309890	      0.87402985	      0.30732722	    -11.38227411	     -1.67355072	      0.78172730	    -25.88637872	     15.02660110	     11.52563122	     25.76875349	     31.50427132	     -0.49800165	     -9.75712247	    -22.33942578	      3.49365855	     -7.42404025	      2.07944967	     -4.76558123	     -3.89016735	     11.90465453
      0.95633333	     -4.04139830	      3.12688765	     -8.06226261	     -0.03651579	      0.87389007	      0.30648002	    -10.94829456	     -1.97870702	      0.43261967	    -27.49732488	     14.12798910	     11.51893000	     27.91030090	     31.48202658	     -0.11771487	     -9.54659324	    -23.05986597	      3.37064637	     -7.71937368	      2.15766159	     -4.69266760	     -4.17176010	     11.58263815
      0.96050000	     -4.03406461	      3.29349862	     -7.94814302	     -0.03000776	      0.87382518	      0.30581890	    -10.45499773	     -2.24063421	      0.28004466	    -29.19293803	     13.16570966	     11.34118105	     28.00803139	     31.45365372	      0.15709244	     -9.50971357	    -23.82511418	      3.49308275	     -7.73714081	      2.16506186	     -4.64617104	     -4.44151490	     11.46115987
      0.96466667	     -4.02960288	      3.47238044	     -7.77634416	     -0.02353130	      0.87378183	      0.30498199	     -9.89972617	     -2.53478881	     -0.01246437	    -30.98792484	     12.21276233	     11.25899261	     28.21754463	     31.41830190	      0.49427417	     -9.37346797	    -24.54607806	      3.55756839	     -7.90455320	      2.16697369	     -4.59038341	     -4.66180016	     11.19085028
      0.96883333	     -3.98106217	      3.67673142	     -7.59145568	     -0.01705408	      0.87386812	      0.30412783	     -9.35586351	     -2.87025549	     -0.32762932	    -32.81887684	     11.15216059	     11.16332418	     28.49365343	     31.29950330	      0.87880216	     -9.20975315	    -25.19044364	      3.66375034	     -8.09071569	      2.16295639	     -4.59536472	     -4.94928829	     10.89406579
      0.97300000	     -3.88349568	      3.89509172	     -7.39684688	     -0.01058872	      0.87408131	      0.30323603	     -8.83032974	     -3.23967271	     -0.66571884	    -34.67210769	      9.95764339	     11.00715952	     32.14406614	     31.09541697	      1.30006196	     -9.01758022	    -25.77194218	      3.85393757	     -8.27114016	      1.98067926	     -4.67553237	     -5.27469665	     10.62902103
      0.97716667	     -3.78881133	      4.09323325	     -7.20511986	     -0.00417548	      0.87434822	      0.30238220	     -8.26468584	     -3.58172346	     -0.96126041	    -36.56449338	      8.71458798	     10.83067571	     32.13877716	     30.87823164	      1.68221590	     -8.87454362	    -26.33054342	      4.07992921	     -8.29556058	      1.98497013	     -4.75778096	     -5.55556377	     10.40866456
      0.98133333	     -3.70204701	      4.31579026	     -6.99753451	      0.00217331	      0.87461408	      0.30146950	     -7.63329152	     -3.96806581	     -1.30868514	    -38.53353263	      7.49568419	     10.62967272	     32.14828494	     30.65257871	      2.10230294	     -8.72496344	    -26.83831874	      4.27278894	     -8.43051566	      1.97920935	     -4.82952057	     -5.86180255	     10.06272464
      0.98550000	     -3.56530623	      4.53354203	     -6.79470850	      0.00850325	      0.87502713	      0.30058188	     -7.03844925	     -4.35794839	     -1.63258051	    -40.48541662	      6.17420258	     10.40061308	     32.13740971	     30.32506114	      2.52665887	     -8.55827033	    -27.26093100	      4.59023031	     -8.45524322	      1.97973373	     -4.97524946	     -6.16757522	      9.82924390
      0.98966667	     -3.43505177	      4.76140220	     -6.58592816	      0.01477202	      0.87545757	      0.29967668	     -6.39642849	     -4.77148672	     -1.97800628	    -42.46856614	      4.83236227	     10.12015489	     32.11138931	     29.98381212	      2.96176783	     -8.41048553	    -27.63404700	      4.88296403	     -8.50585339	      1.97651821	     -5.11462300	     -6.48916294	      9.53849495
